<?xml version="1.0" encoding="UTF-8"?>
<!DOCTYPE svg PUBLIC "-//W3C//DTD SVG 1.1//EN" "http://www.w3.org/Graphics/SVG/1.1/DTD/svg11.dtd">
<svg xmlns="http://www.w3.org/2000/svg" xml:space="preserve" width="70.5556mm" height="57.3391mm" version="1.1" style="shape-rendering:geometricPrecision; text-rendering:geometricPrecision; image-rendering:optimizeQuality; fill-rule:evenodd; clip-rule:evenodd" viewBox="0 0 7251 5996" xmlns:xlink="http://www.w3.org/1999/xlink">
	<defs>
		<filter id="f1" x="0" y="0" width="100%" height="100%">
			<feComponentTransfer in="SourceAlpha">
				<feFuncR type="discrete" tableValues=".3"/>
				<feFuncG type="discrete" tableValues=".3"/>
				<feFuncB type="discrete" tableValues=".3"/>
			</feComponentTransfer>
			<feGaussianBlur stdDeviation="300" />
			<feOffset result="offOut" dx="100" dy="100" />
			<feMerge> 
				<feMergeNode/>
				<feMergeNode in="SourceGraphic"/>
			</feMerge>
		</filter>
	</defs>
	<path class="fil0" d="M6701 645c-247,109 -512,183 -790,216 284,-170 502,-440 604,-761 -266,158 -560,272 -873,334 -251,-267 -608,-434 -1004,-434 -759,0 -1375,616 -1375,1375 0,108 12,213 36,313 -1143,-57 -2156,-605 -2834,-1437 -118,203 -186,439 -186,691 0,477 243,898 612,1144 -225,-7 -437,-69 -623,-172 0,6 0,11 0,17 0,666 474,1222 1103,1348 -115,31 -237,48 -362,48 -89,0 -175,-9 -259,-25 175,546 683,944 1284,955 -471,369 -1063,589 -1708,589 -111,0 -220,-7 -328,-19 608,390 1331,618 2108,618 2529,0 3912,-2095 3912,-3912 0,-60 -1,-119 -4,-178 269,-194 502,-436 686,-712z"  filter="url(#f1)" fill="#41ABE1"/>
</svg>
